<?xml version="1.0" encoding="UTF-8" standalone="no"?><svg xmlns="http://www.w3.org/2000/svg" xmlns:xlink="http://www.w3.org/1999/xlink" contentStyleType="text/css" height="301px" preserveAspectRatio="none" style="width:536px;height:301px;background:#FFFFFF;" version="1.1" viewBox="0 0 536 301" width="536px" zoomAndPan="magnify"><defs/><g><rect fill="none" height="27.6094" id="_title" style="stroke:none;stroke-width:1.0;" width="297" x="115.5" y="5"/><text fill="#000000" font-family="sans-serif" font-size="14" font-weight="bold" lengthAdjust="spacing" textLength="287" x="120.5" y="24.5332">ProSoft - CryptoSoft 1.0.0 - Class Diagram</text><!--MD5=[0fb9078f32b34f36bd32e9b51e053a3a]
class CryptoSoft--><g id="elem_CryptoSoft"><rect codeLine="4" fill="#F1F1F1" height="241.7031" id="CryptoSoft" rx="2.5" ry="2.5" style="stroke:#181818;stroke-width:0.5;" width="515" x="7" y="45.6094"/><ellipse cx="226.75" cy="61.6094" fill="#ADD1B2" rx="11" ry="11" style="stroke:#181818;stroke-width:1.0;"/><path d="M229.5156,57.4844 Q229.6719,57.2656 229.8594,57.1563 Q230.0469,57.0469 230.2656,57.0469 Q230.6406,57.0469 230.875,57.3125 Q231.1094,57.5625 231.1094,58.1719 L231.1094,59.625 Q231.1094,60.2344 230.875,60.5 Q230.6406,60.7656 230.2656,60.7656 Q229.9219,60.7656 229.7188,60.5625 Q229.5156,60.375 229.4063,59.8594 Q229.3594,59.5 229.1719,59.3125 Q228.8438,58.9375 228.2344,58.7188 Q227.625,58.5 227,58.5 Q226.2344,58.5 225.5938,58.8281 Q224.9688,59.1563 224.4688,59.9063 Q223.9844,60.6563 223.9844,61.6875 L223.9844,62.7813 Q223.9844,64.0156 224.875,64.8438 Q225.7656,65.6563 227.3594,65.6563 Q228.2969,65.6563 228.9531,65.4063 Q229.3438,65.25 229.7656,64.8125 Q230.0313,64.5469 230.1719,64.4688 Q230.3281,64.3906 230.5313,64.3906 Q230.8594,64.3906 231.1094,64.6563 Q231.375,64.9063 231.375,65.25 Q231.375,65.5938 231.0313,66 Q230.5313,66.5781 229.7344,66.9063 Q228.6563,67.3594 227.3594,67.3594 Q225.8438,67.3594 224.6406,66.7344 Q223.6563,66.2344 222.9688,65.1719 Q222.2813,64.0938 222.2813,62.8125 L222.2813,61.6563 Q222.2813,60.3281 222.8906,59.1875 Q223.5156,58.0313 224.6094,57.4219 Q225.7031,56.7969 226.9375,56.7969 Q227.6719,56.7969 228.3125,56.9688 Q228.9688,57.125 229.5156,57.4844 Z " fill="#000000"/><text fill="#000000" font-family="sans-serif" font-size="14" lengthAdjust="spacing" textLength="67" x="247.25" y="67.3379">CryptoSoft</text><line style="stroke:#181818;stroke-width:0.5;" x1="8" x2="521" y1="77.6094" y2="77.6094"/><rect fill="none" height="6" style="stroke:#C82930;stroke-width:1.0;" width="6" x="15" y="88.9141"/><text fill="#000000" font-family="sans-serif" font-size="14" lengthAdjust="spacing" textLength="69" x="27" y="96.1426">key : string</text><rect fill="none" height="6" style="stroke:#C82930;stroke-width:1.0;" width="6" x="15" y="106.5234"/><text fill="#000000" font-family="sans-serif" font-size="14" lengthAdjust="spacing" textLength="132" x="27" y="113.752">instance : CryptoSoft</text><rect fill="none" height="6" style="stroke:#C82930;stroke-width:1.0;" width="6" x="15" y="124.1328"/><text fill="#000000" font-family="sans-serif" font-size="14" lengthAdjust="spacing" textLength="140" x="27" y="131.3613">stopwatch : Stopwatch</text><rect fill="none" height="6" style="stroke:#C82930;stroke-width:1.0;" width="6" x="15" y="141.7422"/><text fill="#000000" font-family="sans-serif" font-size="14" lengthAdjust="spacing" textLength="185" x="27" y="148.9707">extensions : HashSet&lt;String&gt;</text><line style="stroke:#181818;stroke-width:0.5;" x1="8" x2="521" y1="156.0469" y2="156.0469"/><rect fill="#F24D5C" height="6" style="stroke:#C82930;stroke-width:1.0;" width="6" x="15" y="167.3516"/><text fill="#000000" font-family="sans-serif" font-size="14" lengthAdjust="spacing" textLength="77" x="27" y="174.5801">CryptoSoft()</text><rect fill="#F24D5C" height="6" style="stroke:#C82930;stroke-width:1.0;" width="6" x="15" y="184.9609"/><text fill="#000000" font-family="sans-serif" font-size="14" lengthAdjust="spacing" textLength="146" x="27" y="192.1895">CryptoSoft(key : string)</text><rect fill="#F24D5C" height="6" style="stroke:#C82930;stroke-width:1.0;" width="6" x="15" y="202.5703"/><text fill="#000000" font-family="sans-serif" font-size="14" lengthAdjust="spacing" textLength="339" x="27" y="209.7988">CryptoSoft(key : string, extensions : HashSet&lt;String&gt;)</text><text fill="#000000" font-family="sans-serif" font-size="14" lengthAdjust="spacing" textLength="4" x="27" y="227.4082"> </text><ellipse cx="18" cy="240.7891" fill="#84BE84" rx="3" ry="3" style="stroke:#038048;stroke-width:1.0;"/><text fill="#000000" font-family="sans-serif" font-size="14" lengthAdjust="spacing" text-decoration="underline" textLength="306" x="27" y="245.0176">Init(key : string, extensions : string[]) : CryptoSoft</text><ellipse cx="18" cy="258.3984" fill="#84BE84" rx="3" ry="3" style="stroke:#038048;stroke-width:1.0;"/><text fill="#000000" font-family="sans-serif" font-size="14" lengthAdjust="spacing" textLength="444" x="27" y="262.627">ProcessFile(inputFile : string, outputFile : string, largeFile : bool) : long</text><ellipse cx="18" cy="276.0078" fill="#84BE84" rx="3" ry="3" style="stroke:#038048;stroke-width:1.0;"/><text fill="#000000" font-family="sans-serif" font-size="14" lengthAdjust="spacing" textLength="489" x="27" y="280.2363">ProcessFiles(inputFiles : string[], outputDir : string) : Dictionnary&lt;string, long&gt;</text></g><!--MD5=[fe9ba93344bd7e0387f8568c7b2b5396]
@startuml ProSoft - CryptoSoft 1.0.0 - Class Diagram

title "ProSoft - CryptoSoft 1.0.0 - Class Diagram"

class CryptoSoft {
    - key : string
    - instance : CryptoSoft
    - stopwatch : Stopwatch
    - extensions : HashSet<String>

    - CryptoSoft()
    - CryptoSoft(key : string)
    - CryptoSoft(key : string, extensions : HashSet<String>)

    + {static} Init(key : string, extensions : string[]) : CryptoSoft
    + ProcessFile(inputFile : string, outputFile : string, largeFile : bool) : long
    + ProcessFiles(inputFiles : string[], outputDir : string) : Dictionnary<string, long>
}

@enduml

PlantUML version 1.2022.7(Mon Aug 22 19:01:30 CEST 2022)
(GPL source distribution)
Java Runtime: Java(TM) SE Runtime Environment
JVM: Java HotSpot(TM) 64-Bit Server VM
Default Encoding: UTF-8
Language: fr
Country: FR
--></g></svg>