<?xml version="1.0" encoding="UTF-8" standalone="no"?><svg xmlns="http://www.w3.org/2000/svg" xmlns:xlink="http://www.w3.org/1999/xlink" contentStyleType="text/css" height="248px" preserveAspectRatio="none" style="width:392px;height:248px;background:#FFFFFF;" version="1.1" viewBox="0 0 392 248" width="392px" zoomAndPan="magnify"><defs/><g><rect fill="none" height="27.6094" id="_title" style="stroke:none;stroke-width:1.0;" width="297" x="43.5" y="5"/><text fill="#000000" font-family="sans-serif" font-size="14" font-weight="bold" lengthAdjust="spacing" textLength="287" x="48.5" y="24.5332">ProSoft - CryptoSoft 1.0.0 - Class Diagram</text><!--MD5=[0fb9078f32b34f36bd32e9b51e053a3a]
class CryptoSoft--><g id="elem_CryptoSoft"><rect codeLine="4" fill="#F1F1F1" height="188.875" id="CryptoSoft" rx="2.5" ry="2.5" style="stroke:#181818;stroke-width:0.5;" width="371" x="7" y="45.6094"/><ellipse cx="154.75" cy="61.6094" fill="#ADD1B2" rx="11" ry="11" style="stroke:#181818;stroke-width:1.0;"/><path d="M157.5156,57.4844 Q157.6719,57.2656 157.8594,57.1563 Q158.0469,57.0469 158.2656,57.0469 Q158.6406,57.0469 158.875,57.3125 Q159.1094,57.5625 159.1094,58.1719 L159.1094,59.625 Q159.1094,60.2344 158.875,60.5 Q158.6406,60.7656 158.2656,60.7656 Q157.9219,60.7656 157.7188,60.5625 Q157.5156,60.375 157.4063,59.8594 Q157.3594,59.5 157.1719,59.3125 Q156.8438,58.9375 156.2344,58.7188 Q155.625,58.5 155,58.5 Q154.2344,58.5 153.5938,58.8281 Q152.9688,59.1563 152.4688,59.9063 Q151.9844,60.6563 151.9844,61.6875 L151.9844,62.7813 Q151.9844,64.0156 152.875,64.8438 Q153.7656,65.6563 155.3594,65.6563 Q156.2969,65.6563 156.9531,65.4063 Q157.3438,65.25 157.7656,64.8125 Q158.0313,64.5469 158.1719,64.4688 Q158.3281,64.3906 158.5313,64.3906 Q158.8594,64.3906 159.1094,64.6563 Q159.375,64.9063 159.375,65.25 Q159.375,65.5938 159.0313,66 Q158.5313,66.5781 157.7344,66.9063 Q156.6563,67.3594 155.3594,67.3594 Q153.8438,67.3594 152.6406,66.7344 Q151.6563,66.2344 150.9688,65.1719 Q150.2813,64.0938 150.2813,62.8125 L150.2813,61.6563 Q150.2813,60.3281 150.8906,59.1875 Q151.5156,58.0313 152.6094,57.4219 Q153.7031,56.7969 154.9375,56.7969 Q155.6719,56.7969 156.3125,56.9688 Q156.9688,57.125 157.5156,57.4844 Z " fill="#000000"/><text fill="#000000" font-family="sans-serif" font-size="14" lengthAdjust="spacing" textLength="67" x="175.25" y="67.3379">CryptoSoft</text><line style="stroke:#181818;stroke-width:0.5;" x1="8" x2="377" y1="77.6094" y2="77.6094"/><rect fill="none" height="6" style="stroke:#C82930;stroke-width:1.0;" width="6" x="15" y="88.9141"/><text fill="#000000" font-family="sans-serif" font-size="14" lengthAdjust="spacing" textLength="69" x="27" y="96.1426">key : string</text><rect fill="none" height="6" style="stroke:#C82930;stroke-width:1.0;" width="6" x="15" y="106.5234"/><text fill="#000000" font-family="sans-serif" font-size="14" lengthAdjust="spacing" textLength="132" x="27" y="113.752">instance : CryptoSoft</text><rect fill="none" height="6" style="stroke:#C82930;stroke-width:1.0;" width="6" x="15" y="124.1328"/><text fill="#000000" font-family="sans-serif" font-size="14" lengthAdjust="spacing" textLength="140" x="27" y="131.3613">stopwatch : Stopwatch</text><line style="stroke:#181818;stroke-width:0.5;" x1="8" x2="377" y1="138.4375" y2="138.4375"/><rect fill="#F24D5C" height="6" style="stroke:#C82930;stroke-width:1.0;" width="6" x="15" y="149.7422"/><text fill="#000000" font-family="sans-serif" font-size="14" lengthAdjust="spacing" textLength="77" x="27" y="156.9707">CryptoSoft()</text><rect fill="#F24D5C" height="6" style="stroke:#C82930;stroke-width:1.0;" width="6" x="15" y="167.3516"/><text fill="#000000" font-family="sans-serif" font-size="14" lengthAdjust="spacing" textLength="146" x="27" y="174.5801">CryptoSoft(key : string)</text><text fill="#000000" font-family="sans-serif" font-size="14" lengthAdjust="spacing" textLength="4" x="27" y="192.1895"> </text><ellipse cx="18" cy="205.5703" fill="#84BE84" rx="3" ry="3" style="stroke:#038048;stroke-width:1.0;"/><text fill="#000000" font-family="sans-serif" font-size="14" lengthAdjust="spacing" text-decoration="underline" textLength="176" x="27" y="209.7988">Init(key : string) : CryptoSoft</text><ellipse cx="18" cy="223.1797" fill="#84BE84" rx="3" ry="3" style="stroke:#038048;stroke-width:1.0;"/><text fill="#000000" font-family="sans-serif" font-size="14" lengthAdjust="spacing" textLength="345" x="27" y="227.4082">ProcessFile(inpuitFile : string, outputFile : string) : long</text></g><!--MD5=[58f6e5c5238216e80d0d875f8333be16]
@startuml ProSoft - CryptoSoft 1.0.0 - Class Diagram

title "ProSoft - CryptoSoft 1.0.0 - Class Diagram"

class CryptoSoft {
    - key : string
    - instance : CryptoSoft
    - stopwatch : Stopwatch

    - CryptoSoft()
    - CryptoSoft(key : string)

    + {static} Init(key : string) : CryptoSoft
    + ProcessFile(inpuitFile : string, outputFile : string) : long
}

@enduml

PlantUML version 1.2022.7(Mon Aug 22 19:01:30 CEST 2022)
(GPL source distribution)
Java Runtime: Java(TM) SE Runtime Environment
JVM: Java HotSpot(TM) 64-Bit Server VM
Default Encoding: UTF-8
Language: fr
Country: FR
--></g></svg>